<svg xmlns="http://www.w3.org/2000/svg" viewBox="0 0 256 256">
<defs>
  <filter id="glow" x="-20%" y="-20%" width="140%" height="140%">
    <feGaussianBlur stdDeviation="4" result="blur"/>
    <feMerge><feMergeNode in="blur"/><feMergeNode in="SourceGraphic"/></feMerge>
  </filter>
  <filter id="innershadow" x="-10%" y="-10%" width="120%" height="120%">
    <feGaussianBlur in="SourceAlpha" stdDeviation="3" result="blur"/>
    <feOffset dx="0" dy="2" result="offset"/>
    <feComposite in="offset" in2="SourceAlpha" operator="in" result="shadow"/>
    <feMerge><feMergeNode in="shadow"/><feMergeNode in="SourceGraphic"/></feMerge>
  </filter>

  <!-- Back panel body gradient -->
  <linearGradient id="backBody" x1="0" y1="0" x2="0" y2="1">
    <stop offset="0%" stop-color="#111a2e"/>
    <stop offset="40%" stop-color="#0c1222"/>
    <stop offset="100%" stop-color="#080c18"/>
  </linearGradient>

  <!-- Front panel gradient — slightly lighter, surface catch -->
  <linearGradient id="frontBody" x1="0" y1="0" x2="0.3" y2="1">
    <stop offset="0%" stop-color="#151f35"/>
    <stop offset="15%" stop-color="#121a2c"/>
    <stop offset="100%" stop-color="#0a1020"/>
  </linearGradient>

  <!-- Interior glow (visible through the gap) -->
  <linearGradient id="interiorGlow" x1="0" y1="0" x2="0" y2="1">
    <stop offset="0%" stop-color="#0099FF" stop-opacity="0.35"/>
    <stop offset="60%" stop-color="#0099FF" stop-opacity="0.12"/>
    <stop offset="100%" stop-color="#0099FF" stop-opacity="0.03"/>
  </linearGradient>

  <!-- Top highlight on front panel -->
  <linearGradient id="topHighlight" x1="0" y1="0" x2="0" y2="1">
    <stop offset="0%" stop-color="#ffffff" stop-opacity="0.04"/>
    <stop offset="30%" stop-color="#ffffff" stop-opacity="0"/>
  </linearGradient>

  <!-- Bottom spine gradient -->
  <linearGradient id="spineGrad" x1="0" y1="0" x2="0" y2="1">
    <stop offset="0%" stop-color="#0a0e1a"/>
    <stop offset="100%" stop-color="#050810"/>
  </linearGradient>
</defs>
<rect width="256" height="256" fill="#000000"/>

<!-- Shadow beneath folder -->
<ellipse cx="128" cy="210" rx="72" ry="6"
         fill="black" opacity="0.4" filter="url(#glow)"/>

<!-- BACK PANEL — the container, with a very gentle tab swell -->
<path d="M 42 96
         C 42 86, 46 80, 56 78
         L 82 74
         C 88 72, 94 68, 98 66
         C 102 64, 108 62, 114 62
         C 120 62, 124 64, 126 68
         C 128 72, 130 76, 134 80
         C 138 84, 142 86, 148 88
         L 200 88
         C 210 88, 216 94, 216 104
         L 216 188
         C 216 196, 210 202, 200 202
         L 56 202
         C 46 202, 42 196, 42 188
         Z"
      fill="url(#backBody)"/>

<!-- INTERIOR GLOW — visible in the gap between back and front panels -->
<rect x="46" y="108" width="166" height="18" rx="4"
      fill="url(#interiorGlow)"/>

<!-- Interior glow line (the bright crease) -->
<line x1="52" y1="118" x2="206" y2="118"
      stroke="#0099FF" stroke-width="1" stroke-opacity="0.3"
      filter="url(#glow)"/>

<!-- FRONT PANEL — overlaps lower portion, rounded -->
<path d="M 42 122
         L 216 122
         L 216 188
         C 216 196, 210 202, 200 202
         L 56 202
         C 46 202, 42 196, 42 188
         Z"
      fill="url(#frontBody)"/>

<!-- Top highlight on front panel -->
<path d="M 42 122 L 216 122 L 216 142 L 42 142 Z"
      fill="url(#topHighlight)"/>

<!-- SPINE / bottom thickness -->
<path d="M 48 202 C 48 206, 50 210, 58 210
         L 200 210 C 208 210, 212 206, 212 202"
      fill="url(#spineGrad)" stroke="none"/>

<!-- Subtle edge highlights -->
<path d="M 42 96
         C 42 86, 46 80, 56 78 L 82 74 C 88 72, 94 68, 98 66
         C 102 64, 108 62, 114 62 C 120 62, 124 64, 126 68
         C 128 72, 130 76, 134 80 C 138 84, 142 86, 148 88
         L 200 88 C 210 88, 216 94, 216 104
         L 216 188 C 216 196, 210 202, 200 202
         L 56 202 C 46 202, 42 196, 42 188 Z"
      fill="none" stroke="#0099FF" stroke-width="0.5" stroke-opacity="0.08"/>

<!-- Front panel top edge — subtle blue accent -->
<line x1="44" y1="122" x2="214" y2="122"
      stroke="#0099FF" stroke-width="0.75" stroke-opacity="0.15"/>
</svg>