<svg xmlns="http://www.w3.org/2000/svg" viewBox="0 0 256 256">
<defs>
  <filter id="glow" x="-20%" y="-20%" width="140%" height="140%">
    <feGaussianBlur stdDeviation="4" result="blur"/>
    <feMerge><feMergeNode in="blur"/><feMergeNode in="SourceGraphic"/></feMerge>
  </filter>
  <filter id="bigglow" x="-40%" y="-40%" width="180%" height="180%">
    <feGaussianBlur stdDeviation="8" result="blur"/>
    <feMerge><feMergeNode in="blur"/><feMergeNode in="SourceGraphic"/></feMerge>
  </filter>

  <linearGradient id="backB" x1="0" y1="0" x2="0" y2="1">
    <stop offset="0%" stop-color="#111a2e"/>
    <stop offset="100%" stop-color="#080c18"/>
  </linearGradient>
  <linearGradient id="frontB" x1="0" y1="0" x2="0.2" y2="1">
    <stop offset="0%" stop-color="#151f35"/>
    <stop offset="100%" stop-color="#0a1020"/>
  </linearGradient>
  <linearGradient id="frontHighB" x1="0" y1="0" x2="0" y2="1">
    <stop offset="0%" stop-color="#ffffff" stop-opacity="0.05"/>
    <stop offset="25%" stop-color="#ffffff" stop-opacity="0"/>
  </linearGradient>
  <linearGradient id="spineB" x1="0" y1="0" x2="0" y2="1">
    <stop offset="0%" stop-color="#0a0e1a"/>
    <stop offset="100%" stop-color="#050810"/>
  </linearGradient>

  <!-- Strong interior glow -->
  <radialGradient id="interiorGlowB" cx="0.5" cy="0.5" r="0.6">
    <stop offset="0%" stop-color="#0099FF" stop-opacity="0.5"/>
    <stop offset="50%" stop-color="#0099FF" stop-opacity="0.2"/>
    <stop offset="100%" stop-color="#0099FF" stop-opacity="0"/>
  </radialGradient>
</defs>
<rect width="256" height="256" fill="#000000"/>

<!-- Shadow -->
<ellipse cx="128" cy="212" rx="70" ry="5" fill="black" opacity="0.35"/>

<!-- Back panel -->
<path d="M 42 96 C 42 86, 46 80, 56 78 L 82 74
         C 88 72, 94 68, 98 66 C 102 64, 108 62, 114 62
         C 120 62, 124 64, 126 68 C 128 72, 130 76, 134 80
         C 138 84, 142 86, 148 88 L 200 88
         C 210 88, 216 94, 216 104 L 216 188
         C 216 196, 210 202, 200 202 L 56 202
         C 46 202, 42 196, 42 188 Z"
      fill="url(#backB)"/>

<!-- Interior glow (radial, visible through gap) -->
<rect x="44" y="104" width="170" height="22" rx="6"
      fill="url(#interiorGlowB)"/>

<!-- Bright interior line -->
<line x1="52" y1="116" x2="206" y2="116"
      stroke="#0099FF" stroke-width="1.5" stroke-opacity="0.5"
      filter="url(#glow)"/>

<!-- Atmospheric glow spilling up from gap -->
<rect x="60" y="100" width="140" height="24" rx="8"
      fill="#0099FF" opacity="0.04" filter="url(#bigglow)"/>

<!-- Front panel -->
<path d="M 42 122 L 216 122 L 216 188
         C 216 196, 210 202, 200 202
         L 56 202 C 46 202, 42 196, 42 188 Z"
      fill="url(#frontB)"/>

<!-- Front highlight -->
<path d="M 42 122 L 216 122 L 216 138 L 42 138 Z"
      fill="url(#frontHighB)"/>

<!-- Spine -->
<path d="M 48 202 C 48 206, 52 210, 58 210
         L 200 210 C 206 210, 212 206, 212 202"
      fill="url(#spineB)"/>

<!-- Subtle structural edge -->
<path d="M 42 96 C 42 86, 46 80, 56 78 L 82 74
         C 88 72, 94 68, 98 66 C 102 64, 108 62, 114 62
         C 120 62, 124 64, 126 68 C 128 72, 130 76, 134 80
         C 138 84, 142 86, 148 88 L 200 88
         C 210 88, 216 94, 216 104 L 216 188
         C 216 196, 210 202, 200 202 L 56 202
         C 46 202, 42 196, 42 188 Z"
      fill="none" stroke="#0099FF" stroke-width="0.5" stroke-opacity="0.1"/>
</svg>
