<svg xmlns="http://www.w3.org/2000/svg" viewBox="0 0 256 256">
<defs>
  <filter id="glow" x="-20%" y="-20%" width="140%" height="140%">
    <feGaussianBlur stdDeviation="4" result="blur"/>
    <feMerge><feMergeNode in="blur"/><feMergeNode in="SourceGraphic"/></feMerge>
  </filter>

  <linearGradient id="backC" x1="0" y1="0" x2="0" y2="1">
    <stop offset="0%" stop-color="#10182a"/>
    <stop offset="100%" stop-color="#080c18"/>
  </linearGradient>
  <linearGradient id="frontC" x1="0" y1="0" x2="0" y2="1">
    <stop offset="0%" stop-color="#182040"/>
    <stop offset="8%" stop-color="#141c30"/>
    <stop offset="100%" stop-color="#0c1222"/>
  </linearGradient>
  <!-- Blue light bleed at top of front panel -->
  <linearGradient id="bleedC" x1="0" y1="0" x2="0" y2="1">
    <stop offset="0%" stop-color="#0099FF" stop-opacity="0.12"/>
    <stop offset="20%" stop-color="#0099FF" stop-opacity="0.04"/>
    <stop offset="40%" stop-color="#0099FF" stop-opacity="0"/>
  </linearGradient>
  <linearGradient id="spineC" x1="0" y1="0" x2="0" y2="1">
    <stop offset="0%" stop-color="#0a0e1a"/>
    <stop offset="100%" stop-color="#050810"/>
  </linearGradient>
</defs>
<rect width="256" height="256" fill="#000000"/>

<!-- Shadow -->
<ellipse cx="128" cy="212" rx="68" ry="5" fill="black" opacity="0.3"/>

<!-- Back panel -->
<path d="M 42 96 C 42 86, 46 80, 56 78 L 82 74
         C 88 72, 94 68, 98 66 C 102 64, 108 62, 114 62
         C 120 62, 124 64, 126 68 C 128 72, 130 76, 134 80
         C 138 84, 142 86, 148 88 L 200 88
         C 210 88, 216 94, 216 104 L 216 188
         C 216 196, 210 202, 200 202 L 56 202
         C 46 202, 42 196, 42 188 Z"
      fill="url(#backC)"/>

<!-- Interior — blue glow strip visible in the gap -->
<rect x="46" y="108" width="166" height="16" rx="3"
      fill="#0099FF" opacity="0.15"/>
<line x1="50" y1="116" x2="208" y2="116"
      stroke="#0099FF" stroke-width="1" stroke-opacity="0.4"
      filter="url(#glow)"/>

<!-- Front panel -->
<path d="M 42 120 L 216 120 L 216 188
         C 216 196, 210 202, 200 202
         L 56 202 C 46 202, 42 196, 42 188 Z"
      fill="url(#frontC)"/>

<!-- Blue light bleed through top of front panel -->
<path d="M 42 120 L 216 120 L 216 160 L 42 160 Z"
      fill="url(#bleedC)"/>

<!-- Spine -->
<path d="M 48 202 C 48 206, 52 210, 58 210
         L 200 210 C 206 210, 212 206, 212 202"
      fill="url(#spineC)"/>

<!-- Front panel subtle top highlight -->
<line x1="46" y1="121" x2="212" y2="121"
      stroke="#ffffff" stroke-width="0.5" stroke-opacity="0.06"/>
</svg>