<svg xmlns="http://www.w3.org/2000/svg" viewBox="0 0 256 256">
<defs>
  <filter id="glow" x="-20%" y="-20%" width="140%" height="140%">
    <feGaussianBlur stdDeviation="3.5" result="blur"/>
    <feMerge><feMergeNode in="blur"/><feMergeNode in="SourceGraphic"/></feMerge>
  </filter>

  <linearGradient id="backD" x1="0.2" y1="0" x2="0.8" y2="1">
    <stop offset="0%" stop-color="#111a2e"/>
    <stop offset="100%" stop-color="#070b16"/>
  </linearGradient>
  <linearGradient id="frontD" x1="0.2" y1="0" x2="0.8" y2="1">
    <stop offset="0%" stop-color="#161e34"/>
    <stop offset="15%" stop-color="#121a2c"/>
    <stop offset="100%" stop-color="#0b1020"/>
  </linearGradient>
  <linearGradient id="spineD" x1="0" y1="0" x2="0" y2="1">
    <stop offset="0%" stop-color="#0a0e1a"/>
    <stop offset="100%" stop-color="#050810"/>
  </linearGradient>
</defs>
<rect width="256" height="256" fill="#000000"/>

<!-- Shadow -->
<ellipse cx="128" cy="211" rx="68" ry="5" fill="black" opacity="0.35"/>

<!-- Back panel with gentle tab swell -->
<path d="M 42 96 C 42 86, 46 80, 56 78 L 82 74
         C 88 72, 94 68, 98 66 C 102 64, 108 62, 114 62
         C 120 62, 124 64, 126 68 C 128 72, 130 76, 134 80
         C 138 84, 142 86, 148 88 L 200 88
         C 210 88, 216 94, 216 104 L 216 188
         C 216 196, 210 202, 200 202 L 56 202
         C 46 202, 42 196, 42 188 Z"
      fill="url(#backD)"/>

<!-- Gap accent — blue energy at the crease -->
<line x1="46" y1="120" x2="212" y2="120"
      stroke="#0099FF" stroke-width="2" stroke-opacity="0.55"
      filter="url(#glow)"/>

<!-- Front panel -->
<path d="M 42 122 L 216 122 L 216 188
         C 216 196, 210 202, 200 202
         L 56 202 C 46 202, 42 196, 42 188 Z"
      fill="url(#frontD)"/>

<!-- Front panel top edge highlight (white catch-light) -->
<line x1="46" y1="122.5" x2="212" y2="122.5"
      stroke="#ffffff" stroke-width="0.75" stroke-opacity="0.06"/>

<!-- Spine -->
<path d="M 48 202 C 48 206, 52 210, 58 210
         L 200 210 C 206 210, 212 206, 212 202"
      fill="url(#spineD)"/>

<!-- Tab top edge — subtle accent trace -->
<path d="M 60 76 C 66 72, 76 68, 88 66
         C 96 64, 106 62, 114 62
         C 120 62, 124 64, 126 68"
      fill="none" stroke="#0099FF" stroke-width="1" stroke-opacity="0.2"
      stroke-linecap="round"/>
</svg>