<svg xmlns="http://www.w3.org/2000/svg" viewBox="0 0 256 256">
  <!-- app-discord — vendor symbolic ingest (geometry byte-preserved, U1) -->
  <g class="fill">
    <path fill-rule="nonzero" d="M188.99133333333333 72.0452C177.58084953992545 66.80746447387135 165.53896256017606 63.072460655788575 153.16726666666665 60.93373333333332C152.9367773512467 60.89073043578297 152.70469781949944 61.00041388327117 152.59159999999997 61.205799999999996C151.04426666666666 63.958 149.33046666666667 67.54766666666666 148.13073333333332 70.3688C134.60293333333334 68.34333333333333 121.14406666666666 68.34333333333333 107.89419999999998 70.3688C106.69446666666664 67.4846 104.91833333333332 63.958 103.36439999999999 61.205799999999996C103.24660616354393 61.005536866202874 103.0181698612431 60.89786625237954 102.78873333333333 60.934466666666665C90.4157871574636 63.06822153849251 78.37308635616372 66.80290828907987 66.96393333333333 72.04446666666664C66.86632806068467 72.0861729668375 66.78407646132193 72.15715020367075 66.72853333333333 72.24759999999999C43.9116 106.33586666666666 37.660666666666664 139.58593333333334 40.727466666666665 172.42386666666667C40.74498592706156 172.58629040979227 40.82752382040053 172.73469989108443 40.95626666666666 172.83526666666666C56.01013333333333 183.891 70.59246666666667 190.60246666666666 84.9042 195.05086666666665C85.13209236252888 195.1188695971629 85.3782516346314 195.03818080963285 85.52166666666666 194.84846666666667C88.90673333333334 190.22553333333332 91.92439999999999 185.3503333333333 94.51233333333333 180.22433333333333C94.58428475957714 180.0823571578128 94.59210026610185 179.91639183833465 94.5338093206781 179.76828239287096C94.47551837525435 179.62017294740724 94.35668350158585 179.50405299988785 94.20726666666667 179.44920000000002C89.42006666666666 177.6334666666667 84.8624 175.41953333333336 80.4778 172.9056666666667C80.31542292716117 172.81030683116433 80.21126750504182 172.6402783622785 80.20008026031908 172.45230321081894C80.18889301559635 172.26432805935931 80.27214632659417 172.08314605584792 80.42206666666664 171.9692C81.34459999999999 171.27766666666668 82.26786666666666 170.55900000000003 83.14859999999999 169.8322666666667C83.30827309119196 169.70061171403805 83.5287475380097 169.6707794757444 83.71766666666667 169.75526666666667C112.52153333333334 182.90613333333334 143.70433333333335 182.90613333333334 172.16793333333334 169.75526666666667C172.3571535750315 169.66524230142835 172.58131707847446 169.692370368724 172.7436 169.82493333333335C173.62506666666664 170.55093333333335 174.54759999999996 171.27766666666668 175.47746666666666 171.9692C175.6277736198393 172.08203376659978 175.71208877452756 172.26225693037358 175.7023804160675 172.4499518606012C175.69267205760747 172.63764679082882 175.59021282103103 172.80820921022686 175.42906666666667 172.90493333333336C171.0428741237005 175.46681584486262 166.44809132124732 177.65356939003445 161.69373333333328 179.4418666666667C161.5444093828922 179.49896411900954 161.4264876782326 179.6169815433169 161.36951140503385 179.7663517730542C161.3125351318351 179.91572200279143 161.3219024944056 180.0822929888258 161.39526666666666 180.22433333333336C164.03819999999996 185.34300000000002 167.05586666666665 190.21820000000002 170.3786 194.84113333333337C170.51777523076936 195.03672687280513 170.76655481226618 195.121229200962 170.99606666666665 195.05086666666676C185.3767333333333 190.60173333333339 199.95906666666667 183.89026666666672 215.01293333333334 172.8352666666667C215.14407237989374 172.73959812739542 215.22769680553466 172.59211990709576 215.24246666666667 172.43046666666672C218.91206666666668 134.46580000000006 209.0956666666667 101.48853333333341 189.22013333333334 72.25420000000007C189.1713422049689 72.15922262115953 189.09018700867782 72.08483035789266 188.99133333333333 72.04446666666674V72.0452ZM98.81333333333333 152.4288C90.14166666666665 152.4288 82.99606666666665 144.46699999999998 82.99606666666665 134.68946666666665C82.99606666666665 124.91266666666667 90.00306666666665 116.95086666666667 98.81406666666666 116.95086666666667C107.69326666666666 116.95086666666667 114.76919999999998 124.98233333333334 114.6306 134.6902C114.6306 144.467 107.6236 152.42880000000002 98.81333333333333 152.42880000000002V152.4288ZM157.2952 152.4288C148.62353333333334 152.4288 141.47793333333334 144.46699999999998 141.47793333333334 134.68946666666665C141.47793333333334 124.91266666666667 148.4842 116.95086666666667 157.2952 116.95086666666667C166.1744 116.95086666666667 173.25033333333334 124.98233333333334 173.11173333333332 134.6902C173.11173333333332 144.467 166.1744 152.42880000000002 157.29519999999997 152.42880000000002L157.2952 152.4288Z"/>
  </g>
</svg>
