<svg xmlns="http://www.w3.org/2000/svg" viewBox="0 0 256 256">
<defs>
  <filter id="glow" x="-20%" y="-20%" width="140%" height="140%">
    <feGaussianBlur stdDeviation="3.5"/></filter>
  <filter id="shadow" x="-10%" y="-5%" width="120%" height="130%">
    <feDropShadow dx="0" dy="4" stdDeviation="7" flood-color="#000" flood-opacity="0.5"/></filter>

  <linearGradient id="bodyD" x1="0.2" y1="0" x2="0.8" y2="1">
    <stop offset="0%" stop-color="#131b30"/>
    <stop offset="40%" stop-color="#0e1626"/>
    <stop offset="100%" stop-color="#080c18"/></linearGradient>
  <linearGradient id="frontD" x1="0.2" y1="0" x2="0.8" y2="1">
    <stop offset="0%" stop-color="#171f38"/>
    <stop offset="10%" stop-color="#131a2e"/>
    <stop offset="100%" stop-color="#0b1222"/></linearGradient>
  <linearGradient id="highlightD" x1="0" y1="0" x2="0" y2="1">
    <stop offset="0%" stop-color="#ffffff" stop-opacity="0.07"/>
    <stop offset="35%" stop-color="#ffffff" stop-opacity="0"/></linearGradient>
</defs>
<rect width="256" height="256" fill="#000000"/>

<!-- Main body with notch — the notch on the right creates the tab on the left -->
<path d="M 56 62 C 46 62, 38 70, 38 80
         L 38 192 C 38 202, 46 210, 56 210
         L 200 210 C 210 210, 218 202, 218 192
         L 218 100 C 218 90, 210 82, 200 82
         L 148 82 C 140 82, 136 78, 134 74
         L 130 66 C 128 62, 124 62, 120 62
         Z"
      fill="url(#bodyD)" filter="url(#shadow)"/>

<!-- Crease / divider line -->
<line x1="42" y1="118" x2="214" y2="118"
      stroke="#0099FF" stroke-width="1" stroke-opacity="0.4"
      filter="url(#glow)"/>

<!-- Front panel below crease -->
<path d="M 38 118 L 218 118
         L 218 192 C 218 202, 210 210, 200 210
         L 56 210 C 46 210, 38 202, 38 192 Z"
      fill="url(#frontD)"/>

<!-- Front highlight -->
<path d="M 38 118 L 218 118 L 218 145 L 38 145 Z"
      fill="url(#highlightD)"/>

<!-- Notch accent — blue energy at the notch curve -->
<path d="M 148 82 C 140 82, 136 78, 134 74 L 130 66 C 128 62, 124 62, 120 62"
      fill="none" stroke="#0099FF" stroke-width="1.5" stroke-opacity="0.35"
      stroke-linecap="round" filter="url(#glow)"/>

<!-- Subtle outer edge -->
<path d="M 56 62 C 46 62, 38 70, 38 80
         L 38 192 C 38 202, 46 210, 56 210
         L 200 210 C 210 210, 218 202, 218 192
         L 218 100 C 218 90, 210 82, 200 82
         L 148 82 C 140 82, 136 78, 134 74
         L 130 66 C 128 62, 124 62, 120 62 Z"
      fill="none" stroke="#0099FF" stroke-width="0.5" stroke-opacity="0.08"/>
</svg>