<svg xmlns="http://www.w3.org/2000/svg" viewBox="0 0 256 256">
<defs>
  <filter id="glow" x="-20%" y="-20%" width="140%" height="140%">
    <feGaussianBlur stdDeviation="4"/></filter>
  <filter id="bigglow" x="-30%" y="-30%" width="160%" height="160%">
    <feGaussianBlur stdDeviation="8"/></filter>
  <filter id="shadow" x="-10%" y="-5%" width="120%" height="130%">
    <feDropShadow dx="0" dy="4" stdDeviation="7" flood-color="#000" flood-opacity="0.5"/></filter>

  <linearGradient id="bodyF" x1="0.3" y1="0" x2="0.7" y2="1">
    <stop offset="0%" stop-color="#12192e"/>
    <stop offset="40%" stop-color="#0e1424"/>
    <stop offset="100%" stop-color="#080c18"/></linearGradient>
  <linearGradient id="frontF" x1="0.2" y1="0" x2="0.8" y2="1">
    <stop offset="0%" stop-color="#161f38"/>
    <stop offset="8%" stop-color="#131a2e"/>
    <stop offset="100%" stop-color="#0a1020"/></linearGradient>
  <linearGradient id="highlightF" x1="0" y1="0" x2="0" y2="1">
    <stop offset="0%" stop-color="#ffffff" stop-opacity="0.06"/>
    <stop offset="30%" stop-color="#ffffff" stop-opacity="0"/></linearGradient>
</defs>
<rect width="256" height="256" fill="#000000"/>

<!-- Body — one unified rounded rectangle -->
<rect x="38" y="62" width="180" height="148" rx="20"
      fill="url(#bodyF)" filter="url(#shadow)"/>

<!-- THE glow line — the single defining feature -->
<line x1="46" y1="112" x2="210" y2="112"
      stroke="#0099FF" stroke-width="2" stroke-opacity="0.6"
      filter="url(#glow)"/>

<!-- Atmospheric glow around the line -->
<line x1="60" y1="112" x2="196" y2="112"
      stroke="#0099FF" stroke-width="10" stroke-opacity="0.05"
      filter="url(#bigglow)"/>

<!-- Front panel below the line -->
<path d="M 38 112 L 218 112 L 218 192
         C 218 202, 210 210, 200 210
         L 56 210 C 46 210, 38 202, 38 192 Z"
      fill="url(#frontF)"/>

<!-- Front highlight -->
<path d="M 38 112 L 218 112 L 218 138 L 38 138 Z"
      fill="url(#highlightF)"/>

<!-- Subtle outer border -->
<rect x="38" y="62" width="180" height="148" rx="20"
      fill="none" stroke="#0099FF" stroke-width="0.5" stroke-opacity="0.06"/>
</svg>