<svg xmlns="http://www.w3.org/2000/svg" viewBox="0 0 256 256">
<rect width="256" height="256" fill="#000000"/>

<defs>
  <filter id="glow2" x="-15%" y="-15%" width="130%" height="130%">
    <feGaussianBlur stdDeviation="3" result="blur"/>
    <feMerge>
      <feMergeNode in="blur"/>
      <feMergeNode in="SourceGraphic"/>
    </feMerge>
  </filter>
</defs>

<!-- Back panel -->
<path d="M 55 75 L 55 60 Q 55 52 63 52 L 105 52 Q 113 52 116 60 L 120 68
         Q 123 75 130 75 L 193 75 Q 201 75 201 83 L 201 195 Q 201 203 193 203
         L 63 203 Q 55 203 55 195 Z"
      fill="#0a0e1a"/>

<!-- Front panel -->
<path d="M 55 105 L 201 105 L 201 195 Q 201 203 193 203
         L 63 203 Q 55 203 55 195 Z"
      fill="#0f1525"/>

<!-- Blue accent 1: tab top edge -->
<path d="M 58 60 Q 58 54 64 54 L 104 54 Q 111 54 114 60 L 118 68"
      fill="none" stroke="#0099FF" stroke-width="2" stroke-opacity="0.6"
      stroke-linecap="round" filter="url(#glow2)"/>

<!-- Blue accent 2: crease -->
<line x1="55" y1="105" x2="201" y2="105"
      stroke="#0099FF" stroke-width="2" stroke-opacity="0.5"
      filter="url(#glow2)"/>

<!-- Blue accent 3: bottom edge -->
<path d="M 63 203 Q 55 203 55 195 L 55 195 M 201 195 Q 201 203 193 203"
      fill="none" stroke="#0099FF" stroke-width="1.5" stroke-opacity="0.3"/>
<line x1="63" y1="203" x2="193" y2="203"
      stroke="#0099FF" stroke-width="1.5" stroke-opacity="0.3"
      filter="url(#glow2)"/>

<!-- Subtle outer border -->
<path d="M 55 75 L 55 60 Q 55 52 63 52 L 105 52 Q 113 52 116 60 L 120 68
         Q 123 75 130 75 L 193 75 Q 201 75 201 83 L 201 195 Q 201 203 193 203
         L 63 203 Q 55 203 55 195 Z"
      fill="none" stroke="#0099FF" stroke-width="0.75" stroke-opacity="0.08"/>

</svg>