<svg xmlns="http://www.w3.org/2000/svg" viewBox="0 0 256 256">
<rect width="256" height="256" fill="#000000"/>

<defs>
  <filter id="glow3" x="-15%" y="-15%" width="130%" height="130%">
    <feGaussianBlur stdDeviation="3" result="blur"/>
    <feMerge>
      <feMergeNode in="blur"/>
      <feMergeNode in="SourceGraphic"/>
    </feMerge>
  </filter>
</defs>

<!-- Back panel — bg-card fill, structural border -->
<path d="M 55 75 L 55 60 Q 55 52 63 52 L 105 52 Q 113 52 116 60 L 120 68
         Q 123 75 130 75 L 193 75 Q 201 75 201 83 L 201 195 Q 201 203 193 203
         L 63 203 Q 55 203 55 195 Z"
      fill="#0a0e1a"
      stroke="#0099FF" stroke-width="1" stroke-opacity="0.08"/>

<!-- Front panel — slightly elevated -->
<path d="M 55 105 L 201 105 L 201 195 Q 201 203 193 203
         L 63 203 Q 55 203 55 195 Z"
      fill="#141c30"
      stroke="#0099FF" stroke-width="1" stroke-opacity="0.08"/>

<!-- Crease glow — the seam emits blue light -->
<line x1="55" y1="105" x2="201" y2="105"
      stroke="#0099FF" stroke-width="2" stroke-opacity="0.45"
      filter="url(#glow3)"/>

<!-- Tab top edge — subtle blue trace -->
<path d="M 57 62 Q 57 55 64 55 L 104 55 Q 111 55 114 61 L 118 69"
      fill="none" stroke="#0099FF" stroke-width="1.5" stroke-opacity="0.25"
      stroke-linecap="round"/>

</svg>