<svg xmlns="http://www.w3.org/2000/svg" viewBox="0 0 256 256">
<rect width="256" height="256" fill="#000000"/>

<defs>
  <filter id="glow4" x="-20%" y="-20%" width="140%" height="140%">
    <feGaussianBlur stdDeviation="4" result="blur"/>
    <feMerge>
      <feMergeNode in="blur"/>
      <feMergeNode in="SourceGraphic"/>
    </feMerge>
  </filter>
</defs>

<!-- Very subtle dark fill -->
<path d="M 55 75 L 55 60 Q 55 52 63 52 L 105 52 Q 113 52 116 60 L 120 68
         Q 123 75 130 75 L 193 75 Q 201 75 201 83 L 201 195 Q 201 203 193 203
         L 63 203 Q 55 203 55 195 Z"
      fill="#0a0e1a" fill-opacity="0.5"/>

<!-- Front panel fill -->
<path d="M 55 105 L 201 105 L 201 195 Q 201 203 193 203
         L 63 203 Q 55 203 55 195 Z"
      fill="#0f1525" fill-opacity="0.4"/>

<!-- Energy trace — full outline (dim) -->
<path d="M 55 75 L 55 60 Q 55 52 63 52 L 105 52 Q 113 52 116 60 L 120 68
         Q 123 75 130 75 L 193 75 Q 201 75 201 83 L 201 195 Q 201 203 193 203
         L 63 203 Q 55 203 55 195 Z"
      fill="none" stroke="#0099FF" stroke-width="1.5" stroke-opacity="0.2"
      stroke-linejoin="round"/>

<!-- Energy trace — front panel (slightly brighter) -->
<path d="M 55 105 L 201 105 L 201 195 Q 201 203 193 203
         L 63 203 Q 55 203 55 195 L 55 105"
      fill="none" stroke="#0099FF" stroke-width="1.5" stroke-opacity="0.3"
      stroke-linejoin="round"/>

<!-- Bright crease (the brightest point) -->
<line x1="55" y1="105" x2="201" y2="105"
      stroke="#0099FF" stroke-width="2.5" stroke-opacity="0.7"
      filter="url(#glow4)"/>

<!-- Bright tab trace -->
<path d="M 55 75 L 55 60 Q 55 52 63 52 L 105 52 Q 113 52 116 60 L 120 68
         Q 123 75 130 75"
      fill="none" stroke="#0099FF" stroke-width="2" stroke-opacity="0.5"
      stroke-linecap="round" stroke-linejoin="round"
      filter="url(#glow4)"/>

</svg>