<svg xmlns="http://www.w3.org/2000/svg" viewBox="0 0 256 256">
<defs>
  <linearGradient id="backE" x1="0" y1="0" x2="1" y2="1">
    <stop offset="0%" stop-color="#005599"/>
    <stop offset="100%" stop-color="#002244"/>
  </linearGradient>

  <linearGradient id="frontE" x1="0" y1="0" x2="1" y2="1">
    <stop offset="0%" stop-color="#0099FF"/>
    <stop offset="0.06" stop-color="#44bbff"/>
    <stop offset="0.15" stop-color="#0099FF"/>
    <stop offset="0.85" stop-color="#0088ee"/>
    <stop offset="0.96" stop-color="#44bbff"/>
    <stop offset="1" stop-color="#0080dd"/>
  </linearGradient>

  <linearGradient id="spineE" x1="1" y1="0" x2="0" y2="0.5">
    <stop offset="0%" stop-color="#004477"/>
    <stop offset="100%" stop-color="#002244"/>
  </linearGradient>

  <linearGradient id="glossE" x1="0" y1="0" x2="0.5" y2="1">
    <stop offset="0%" stop-color="#ffffff" stop-opacity="0.14"/>
    <stop offset="30%" stop-color="#ffffff" stop-opacity="0.03"/>
    <stop offset="100%" stop-color="#ffffff" stop-opacity="0"/>
  </linearGradient>

  <filter id="shadow">
    <feDropShadow dx="0" dy="4" stdDeviation="6" flood-color="#001133" flood-opacity="0.6"/>
  </filter>
</defs>
<rect width="256" height="256" fill="#000000"/>

<!-- SPINE (3D left edge — drawn first, behind everything) -->
<path d="M 40 72 C 40 64, 44 58, 50 58
         L 52 58 L 48 62 C 44 66, 42 70, 42 76
         L 42 194 C 42 200, 46 206, 52 208
         L 50 210 C 42 210, 38 204, 38 196
         L 38 80 C 38 72, 40 68, 40 72 Z"
      fill="url(#spineE)"/>

<!-- Back panel -->
<path d="M 48 72 C 48 64, 54 58, 62 58
         L 112 58 C 118 58, 122 60, 126 66
         L 132 78 C 136 84, 140 86, 148 86
         L 198 86 C 206 86, 212 92, 212 100
         L 212 192 C 212 200, 206 206, 198 206
         L 58 206 C 50 206, 44 200, 44 192
         L 44 100 C 44 92, 50 86, 54 86 Z"
      fill="url(#backE)" filter="url(#shadow)"/>

<!-- Highlight band at crease -->
<path d="M 44 116 L 212 116 L 212 122 L 44 122 Z"
      fill="#44bbff" opacity="0.35"/>

<!-- Front panel -->
<path d="M 44 122 L 212 122
         L 212 192 C 212 200, 206 206, 198 206
         L 58 206 C 50 206, 44 200, 44 192 Z"
      fill="url(#frontE)"/>

<!-- Diagonal gloss -->
<path d="M 44 122 L 135 122 L 44 185 Z"
      fill="url(#glossE)"/>

<!-- Second lighter gloss ray -->
<path d="M 65 122 L 160 122 L 65 190 Z"
      fill="#ffffff" opacity="0.02"/>
</svg>