<svg xmlns="http://www.w3.org/2000/svg" viewBox="0 0 256 256">
<defs>
  <!-- Back: deep navy to medium blue, bottom-to-top emergence -->
  <linearGradient id="backF" x1="0.2" y1="1" x2="0.5" y2="0">
    <stop offset="0%" stop-color="#0a1628"/>
    <stop offset="50%" stop-color="#003870"/>
    <stop offset="100%" stop-color="#0066aa"/>
  </linearGradient>

  <!-- Front: darker at bottom, brighter at top — light emerges at the crease -->
  <linearGradient id="frontF" x1="0.2" y1="1" x2="0.5" y2="0">
    <stop offset="0%" stop-color="#0a1628"/>
    <stop offset="40%" stop-color="#003060"/>
    <stop offset="85%" stop-color="#0088dd"/>
    <stop offset="0.92" stop-color="#33aaff"/>
    <stop offset="1" stop-color="#0099FF"/>
  </linearGradient>

  <!-- Spine: darker version of back -->
  <linearGradient id="spineF" x1="1" y1="0" x2="0" y2="0.3">
    <stop offset="0%" stop-color="#0a1628"/>
    <stop offset="100%" stop-color="#060e1c"/>
  </linearGradient>

  <!-- Crease band: bright blue -->
  <linearGradient id="creaseF" x1="0" y1="0" x2="1" y2="0">
    <stop offset="0%" stop-color="#0099FF" stop-opacity="0.5"/>
    <stop offset="50%" stop-color="#44ccff" stop-opacity="0.7"/>
    <stop offset="100%" stop-color="#0099FF" stop-opacity="0.5"/>
  </linearGradient>

  <!-- Diagonal gloss -->
  <linearGradient id="glossF" x1="0" y1="0" x2="0.6" y2="1">
    <stop offset="0%" stop-color="#ffffff" stop-opacity="0.1"/>
    <stop offset="35%" stop-color="#ffffff" stop-opacity="0.02"/>
    <stop offset="100%" stop-color="#ffffff" stop-opacity="0"/>
  </linearGradient>

  <filter id="shadow">
    <feDropShadow dx="0" dy="4" stdDeviation="6" flood-color="#001133" flood-opacity="0.55"/>
  </filter>
  <filter id="glow" x="-10%" y="-10%" width="120%" height="120%">
    <feGaussianBlur stdDeviation="2"/>
  </filter>
</defs>
<rect width="256" height="256" fill="#000000"/>

<!-- Spine (3D left edge) -->
<path d="M 38 76 C 38 66, 42 60, 50 58
         L 52 58 L 46 62 C 42 66, 40 72, 40 78
         L 40 194 C 40 202, 44 208, 52 210
         L 48 210 C 40 208, 36 202, 36 194
         L 36 84 C 36 76, 38 72, 38 76 Z"
      fill="url(#spineF)"/>

<!-- Back panel with tab -->
<path d="M 48 72 C 48 64, 54 58, 62 58
         L 114 58 C 120 58, 124 60, 128 66
         L 134 78 C 138 84, 142 86, 150 86
         L 198 86 C 206 86, 212 92, 212 100
         L 212 192 C 212 200, 206 206, 198 206
         L 58 206 C 50 206, 44 200, 44 192
         L 44 100 C 44 92, 48 88, 54 88 Z"
      fill="url(#backF)" filter="url(#shadow)"/>

<!-- Crease highlight band -->
<path d="M 44 116 L 212 116 L 212 122 L 44 122 Z"
      fill="url(#creaseF)"/>

<!-- Crease glow line -->
<line x1="52" y1="119" x2="204" y2="119"
      stroke="#44ccff" stroke-width="1" stroke-opacity="0.3"
      filter="url(#glow)"/>

<!-- Front panel -->
<path d="M 44 122 L 212 122
         L 212 192 C 212 200, 206 206, 198 206
         L 58 206 C 50 206, 44 200, 44 192 Z"
      fill="url(#frontF)"/>

<!-- Diagonal light reflection -->
<path d="M 44 122 L 130 122 L 44 180 Z"
      fill="url(#glossF)"/>

<!-- Tab top edge highlight -->
<path d="M 60 60 L 112 60 C 118 60, 122 62, 126 68"
      fill="none" stroke="#33bbff" stroke-width="1" stroke-opacity="0.3"
      stroke-linecap="round"/>

<!-- Very subtle overall outer edge -->
<path d="M 48 72 C 48 64, 54 58, 62 58
         L 114 58 C 120 58, 124 60, 128 66
         L 134 78 C 138 84, 142 86, 150 86
         L 198 86 C 206 86, 212 92, 212 100
         L 212 192 C 212 200, 206 206, 198 206
         L 58 206 C 50 206, 44 200, 44 192
         L 44 100 C 44 92, 48 88, 54 88 Z"
      fill="none" stroke="#0099FF" stroke-width="0.5" stroke-opacity="0.1"/>
</svg>